<?xml version="1.0" encoding="utf-8"?>
<!-- Generator: Adobe Illustrator 14.0.0, SVG Export Plug-In . SVG Version: 6.00 Build 43363)  -->
<!DOCTYPE svg PUBLIC "-//W3C//DTD SVG 1.1//EN" "http://www.w3.org/Graphics/SVG/1.1/DTD/svg11.dtd">
<svg version="1.1" id="Layer_1" xmlns="http://www.w3.org/2000/svg" xmlns:xlink="http://www.w3.org/1999/xlink" x="0px" y="0px"
	 width="841.89px" height="595.279px" viewBox="0 0 841.89 595.279" enable-background="new 0 0 841.89 595.279"
	 xml:space="preserve">
<g>
	<path fill="#79726B" d="M683.313,261.236c0,43.862-110.44,85.375-256.127,83.809c-145.688-0.783-273.359-30.547-272.576-86.942
		c0-43.862,119.057-78.326,264.743-77.543C565.823,181.342,683.313,217.372,683.313,261.236"/>
	<path fill="#462911" d="M549.375,473.499c65.011-42.296,107.307-115.14,107.307-198.165c0-130.806-106.523-237.329-237.328-237.329
		c-130.806,0-237.329,106.524-237.329,237.329c0,83.025,43.079,155.869,107.307,198.165c0,0,47.779,20.365,129.239,20.365
		C501.596,494.648,549.375,473.499,549.375,473.499"/>
	<g opacity="0.2">
		<rect x="182.808" y="53.67" fill="none" width="473.874" height="440.978"/>
		<path fill="#010101" d="M503.162,53.67c46.995,36.03,77.543,93.208,77.543,157.437c0,109.656-89.292,198.948-198.949,198.948
			c-99.475,0-181.717-72.843-196.599-168.401c-1.567,10.966-2.35,21.932-2.35,33.681c0,83.025,43.079,155.869,107.307,198.165
			c0,0,47.779,20.365,129.238,20.365c81.46,0,129.239-20.365,129.239-20.365c65.011-42.296,107.307-115.14,107.307-198.165
			C656.682,173.509,593.238,87.351,503.162,53.67"/>
	</g>
	<g opacity="0.3">
		<rect x="217.271" y="85.001" fill="none" width="162.136" height="210.697"/>
		<path fill="#FFFFFF" d="M308.913,190.741c-38.38,69.71-52.479,117.489-75.978,102.607
			c-23.497-14.882-21.931-77.543,17.232-138.638c39.163-61.878,94.774-79.109,118.272-63.444
			C403.688,114.765,343.376,126.514,308.913,190.741"/>
	</g>
	<g opacity="0.3">
		<rect x="202.389" y="45.054" fill="none" width="405.73" height="197.383"/>
		<path fill="#010101" d="M204.739,164.894c-17.231,50.912,71.277,65.794,102.608,71.277c76.76,13.315,154.303,5.482,227.93-23.498
			c28.197-10.966,58.744-28.197,70.493-57.962c11.749-31.33-16.448-59.527-40.729-74.41
			C492.197,34.872,402.121,38.788,322.229,60.72c-39.947,10.966-135.505,63.444-70.494,107.307
			c25.064,16.449,61.095,17.232,89.292,17.232c32.114,0,65.011-3.133,97.125-9.399c24.281-5.482,54.045-17.231,59.527-43.862
			c6.267-31.331-31.33-43.863-54.045-50.129c-27.414-7.05-55.611-7.833-83.025-2.35c-25.064,4.699-48.563,30.547-25.064,52.479
			c10.182,10.183,28.98,14.099,43.079,13.315c10.966-0.783,10.966-18.015,0-17.231c-11.749,0.783-38.38-3.134-35.247-19.582
			c3.133-15.665,38.38-14.882,50.129-15.665c26.631-0.783,65.011,3.916,84.593,23.498c15.665,16.448-14.099,33.68-26.631,38.38
			c-11.749,4.699-25.064,7.049-37.597,8.615c-35.247,5.483-71.277,7.05-106.524,3.917c-23.498-2.35-80.676-15.666-53.262-48.563
			c22.715-27.415,62.661-39.163,95.559-46.213c49.346-10.183,96.341-14.882,144.903-1.566c33.681,9.399,82.243,25.064,93.992,61.878
			c13.315,41.513-57.962,65.011-85.376,73.626c-49.346,16.449-100.258,21.932-151.953,18.799
			c-25.064-1.566-145.687-12.532-131.588-55.612C224.321,158.627,207.872,153.928,204.739,164.894"/>
	</g>
	<path fill="#E9CCB1" d="M204.739,152.362c-17.231,50.912,71.277,65.794,102.608,71.277c76.76,13.315,154.303,5.482,227.93-23.498
		c28.197-10.966,58.744-28.197,70.493-57.962c11.749-31.33-16.448-59.527-40.729-74.41C492.197,22.34,402.121,26.256,322.229,48.188
		c-39.947,10.966-135.505,63.444-70.494,107.307c25.064,16.449,61.095,17.232,89.292,17.232c32.114,0,65.011-3.133,97.125-9.399
		c24.281-5.482,54.045-17.231,59.527-43.862c6.267-31.331-31.33-43.863-54.045-50.129c-27.414-7.05-55.611-7.833-83.025-2.35
		c-25.064,4.699-48.563,30.547-25.064,52.479c10.182,10.182,28.98,14.099,43.079,13.315c10.966-0.783,10.966-18.015,0-17.232
		c-11.749,0.784-38.38-3.133-35.247-19.581c3.133-15.665,38.38-14.882,50.129-15.665c26.631-0.783,65.011,3.916,84.593,23.498
		c15.665,16.448-14.099,33.68-26.631,38.38c-11.749,4.699-25.064,6.266-37.597,8.615c-35.247,5.483-71.277,7.05-106.524,3.917
		c-23.498-2.351-80.676-15.666-53.262-48.563c22.715-27.415,62.661-39.163,95.559-46.213c49.346-10.183,96.341-14.882,144.903-1.566
		c33.681,9.399,82.243,25.064,93.992,61.878c13.315,41.513-57.962,65.011-85.376,73.626
		c-49.346,16.449-100.258,21.932-151.953,18.799c-25.064-1.566-145.687-12.532-131.588-55.612
		C224.321,146.878,207.872,142.179,204.739,152.362"/>
	<g opacity="0.2">
		<rect x="202.389" y="43.488" fill="none" width="405.73" height="187.2"/>
		<path fill="#010101" d="M335.544,119.464c10.182,10.183,28.98,14.099,43.079,13.315c7.049-0.783,9.399-7.832,7.833-12.532
			c-0.784,3.134-3.917,5.483-7.833,5.483c-14.099,0.783-32.114-3.133-43.079-13.315c-5.483-5.483-8.616-10.966-9.399-16.449
			C325.362,103.799,327.711,112.415,335.544,119.464"/>
		<path fill="#010101" d="M478.098,97.533c-18.798-19.582-57.962-24.281-84.593-23.498c-11.749,0-46.212,0-50.129,15.665
			c-0.783,2.35,0,4.699,0,6.266c3.917-14.882,38.38-14.882,49.346-14.882c26.631-0.783,65.011,3.917,84.593,23.498
			c2.35,2.35,3.133,4.7,3.916,6.267C482.797,106.149,482.014,102.233,478.098,97.533"/>
		<path fill="#010101" d="M589.322,113.198c-11.749-36.813-60.312-52.479-93.992-61.878c-49.346-13.315-95.558-8.616-144.903,1.566
			c-33.681,7.05-72.844,18.799-95.559,46.213c-6.266,7.832-7.833,14.099-7.049,19.581c0.783-3.916,3.133-7.832,7.049-12.532
			c22.715-27.414,62.661-39.163,95.559-46.212c49.346-10.183,96.341-14.882,144.903-1.566c33.681,9.398,82.243,25.064,93.992,61.877
			c0.783,2.35,0.783,4.7,1.566,6.267C590.888,122.597,590.888,117.898,589.322,113.198"/>
		<path fill="#010101" d="M604.987,135.913c-10.966,29.764-41.513,46.995-70.494,57.961c-72.843,28.197-150.387,36.03-227.93,23.498
			c-28.197-4.699-101.041-17.231-104.957-55.611c-4.699,43.862,75.193,57.178,104.957,62.661
			c76.76,13.315,154.303,5.482,227.93-23.498c28.198-10.966,58.745-28.198,70.494-57.962c2.35-6.266,3.133-12.532,2.35-18.015
			C607.336,128.08,606.553,131.996,604.987,135.913"/>
		<path fill="#010101" d="M251.735,156.278c25.064,16.449,61.095,17.232,89.292,17.232c32.114,0,65.011-3.133,97.125-9.399
			c24.281-5.483,54.045-17.232,59.527-43.863c0.784-3.133,0.784-7.049,0.784-10.182c0,0.783,0,2.35-0.784,3.133
			c-5.482,27.414-35.246,39.163-59.527,43.862c-31.331,7.05-65.011,10.183-97.125,9.399c-28.98,0-64.228-0.783-89.292-17.231
			c-14.099-9.399-21.148-19.582-21.932-28.981C228.237,131.996,234.503,144.529,251.735,156.278"/>
	</g>
	<path fill="#E2F1E6" d="M682.53,267.501l0.783-2.35l0,0C683.313,265.935,682.53,266.718,682.53,267.501"/>
	<path fill="#E2F1E6" d="M427.186,345.044c-131.588-0.783-246.729-24.281-268.659-70.493l61.095,208.348
		c7.832,44.646,75.977,81.46,198.165,83.026c115.923,1.566,180.934-38.38,189.55-80.676l73.627-211.481
		C662.164,312.148,559.557,345.827,427.186,345.044"/>
	<path fill="#E2F1E6" d="M154.61,262.019L154.61,262.019v0.783C154.61,262.019,154.61,262.019,154.61,262.019"/>
	<g opacity="0.5">
		<rect x="156.96" y="250.27" fill="none" width="528.702" height="334.453"/>
		<g>
			<path fill="none" d="M427.186,345.044c-131.588-0.783-246.729-24.281-268.659-70.493l61.095,208.348
				c7.832,44.646,75.977,81.46,198.165,83.026c115.923,1.566,180.934-38.38,189.55-80.676l73.627-211.481
				C662.164,312.148,559.557,345.827,427.186,345.044"/>
			<g opacity="0.7">
				<g>
					<rect x="184.374" y="266.718" fill="none" width="79.109" height="274.926"/>
					<path fill="#BAB9A0" d="M184.374,272.2c2.35,23.498,13.315,44.646,18.015,68.145c5.483,25.848,12.532,51.695,19.582,76.76
						c6.266,21.931,14.882,42.296,17.231,64.228c1.566,13.315,3.916,41.513,13.315,51.695c4.7,5.483,17.232,21.148,5.483-18.015
						c-3.917-13.315-7.05-32.897-8.616-46.213c-2.35-18.798-10.966-36.813-15.665-54.828c-7.05-23.498-13.315-46.996-18.799-71.277
						c-2.35-11.749-3.916-23.498-7.832-34.464c-3.917-12.532-9.399-23.497-10.966-36.813
						C194.556,265.152,183.591,265.152,184.374,272.2"/>
				</g>
			</g>
			<g opacity="0.7">
				<g>
					<rect x="215.704" y="270.634" fill="none" width="67.361" height="277.275"/>
					<path fill="#BAB9A0" d="M215.704,276.117c0.783,21.931,6.267,43.079,10.966,65.011c5.483,24.281,8.616,48.563,13.315,72.843
						c3.917,23.498,10.183,46.213,16.449,68.928c5.482,20.364,7.832,42.296,16.448,61.878c3.133,7.049,12.532,0.783,10.183-5.483
						c-7.833-18.798-9.399-39.946-14.883-58.745c-6.266-20.364-10.965-42.296-15.665-63.444
						c-4.699-21.931-7.049-45.429-11.749-67.36c-5.482-24.281-12.532-47.779-13.315-72.844
						C226.67,269.068,214.921,269.068,215.704,276.117"/>
				</g>
			</g>
			<g opacity="0.7">
				<g>
					<rect x="241.552" y="292.566" fill="none" width="63.444" height="273.359"/>
					<path fill="#BAB9A0" d="M241.552,299.615c11.749,45.429,19.582,91.642,28.197,137.07c4.7,22.715,5.483,46.213,7.833,68.928
						c1.566,19.581,10.183,37.597,15.665,56.395c2.35,7.05,13.315,3.917,10.966-3.133c-5.482-20.365-14.099-38.38-15.665-59.528
						c-2.35-21.931-3.133-43.862-7.833-65.794c-9.399-45.429-17.231-91.642-28.197-137.071
						C250.951,289.433,239.986,292.566,241.552,299.615"/>
				</g>
			</g>
			<g opacity="0.7">
				<g>
					<rect x="268.966" y="301.965" fill="none" width="53.262" height="263.96"/>
					<path fill="#BAB9A0" d="M268.966,307.448c3.134,41.513,14.882,80.676,25.064,120.623c5.483,23.497,9.399,46.995,10.183,71.276
						c0.783,21.148,1.566,41.513,7.05,62.661c1.566,7.05,12.532,3.917,10.965-3.133c-10.182-39.946-6.266-81.459-14.882-121.406
						c-9.399-43.079-23.498-85.375-27.414-129.238C279.149,299.615,268.183,299.615,268.966,307.448"/>
				</g>
			</g>
			<g opacity="0.7">
				<g>
					<rect x="292.464" y="305.098" fill="none" width="50.912" height="267.093"/>
					<path fill="#BAB9A0" d="M292.464,312.148c7.833,45.429,17.232,90.075,25.064,135.504c4.7,24.281,6.267,47.779,7.833,72.061
						c0.783,16.448,0,33.68,5.482,48.563c2.351,7.049,13.316,3.916,10.966-3.133c-6.266-16.449-4.699-35.247-5.482-51.695
						c-1.567-21.148-3.133-41.514-7.05-62.661c-8.616-47.779-18.798-94.775-26.631-141.771
						C301.864,301.965,290.898,304.315,292.464,312.148"/>
				</g>
			</g>
			<g opacity="0.7">
				<g>
					<rect x="313.613" y="306.664" fill="none" width="49.346" height="277.275"/>
					<path fill="#BAB9A0" d="M315.179,316.064c13.315,12.532,14.882,32.113,17.231,48.563c3.134,20.364,6.267,40.729,9.399,61.095
						c3.917,25.064,7.833,50.128,8.616,75.977c0.783,25.848-0.783,51.695,1.566,77.543c0.783,7.049,11.749,7.049,11.749,0
						c-2.35-25.848-1.566-51.695-1.566-77.543c0-26.631-5.483-52.479-8.616-78.327c-3.133-23.497-7.049-46.212-10.183-69.71
						c-2.35-16.448-6.266-32.897-18.798-44.646C318.312,302.748,309.697,311.364,315.179,316.064"/>
				</g>
			</g>
			<g opacity="0.7">
				<g>
					<rect x="352.776" y="312.148" fill="none" width="32.114" height="260.826"/>
					<path fill="#BAB9A0" d="M353.559,319.197c5.483,18.015,3.916,36.813,3.133,55.611c-0.783,20.365,0.783,39.947,3.134,59.528
						c3.133,22.715,8.615,44.646,10.182,67.361c1.566,21.931,1.566,43.862,3.133,66.577c0.784,7.049,11.749,7.049,11.749,0
						c-1.566-21.932-1.566-43.863-3.133-66.577c-1.566-21.148-6.266-42.297-10.183-63.444c-3.916-22.715-4.699-45.43-3.916-68.928
						c0.783-18.015,1.566-36.03-3.916-53.262C362.175,309.014,351.209,312.148,353.559,319.197"/>
				</g>
			</g>
			<g opacity="0.7">
				<g>
					<rect x="382.539" y="311.364" fill="none" width="21.932" height="264.743"/>
					<path fill="#BAB9A0" d="M383.323,316.847c0,42.296-1.566,84.593,0.784,126.889c2.35,41.513,14.882,83.81,6.266,125.322
						c-1.566,7.049,9.399,10.183,10.966,3.133c8.615-39.163-0.783-76.76-4.7-115.923c-3.916-46.212-1.566-93.208-1.566-139.421
						C395.072,309.797,384.107,309.797,383.323,316.847"/>
				</g>
			</g>
			<g opacity="0.7">
				<g>
					<rect x="410.738" y="312.931" fill="none" width="18.015" height="267.093"/>
					<path fill="#BAB9A0" d="M410.738,318.413c0,45.429,1.566,90.858,3.916,136.288c0.783,21.147,1.566,42.296,1.566,63.444
						c0,14.099,5.483,40.729-1.566,54.045c-3.916,6.266,6.266,12.532,10.183,5.482c6.266-10.965,3.916-25.064,3.133-37.596
						c-0.783-24.281,0-47.779-0.783-72.061c-2.35-50.129-4.7-99.475-4.7-149.604C421.702,311.364,410.738,311.364,410.738,318.413"
						/>
				</g>
			</g>
			<g opacity="0.7">
				<g>
					<rect x="427.969" y="305.881" fill="none" width="19.582" height="278.059"/>
					<path fill="#BAB9A0" d="M437.368,309.014c-7.833,16.449-9.399,32.897-9.399,50.912c0,22.715,0,45.43,0.783,67.361
						c0.783,50.129-0.783,101.041,3.133,151.17c0.783,7.049,11.749,7.049,11.749,0c-3.133-43.863-1.566-87.726-3.133-130.806
						c-0.783-21.931-0.783-43.862-0.783-65.794c0-22.715-3.133-46.213,7.049-67.36C449.901,308.231,440.501,302.748,437.368,309.014
						"/>
				</g>
			</g>
			<g opacity="0.7">
				<g>
					<rect x="456.166" y="310.58" fill="none" width="18.798" height="264.743"/>
					<path fill="#BAB9A0" d="M456.949,318.413c10.183,16.448,5.483,38.38,3.133,55.611c-2.35,17.232-3.916,34.464-3.916,52.479
						c0,47.778,0.783,95.558,0,143.337c0,7.049,11.749,7.049,11.749,0c0-51.695-0.783-104.174,0-155.869
						c0-31.331,17.231-72.061-0.783-101.041C463.216,306.664,453.033,312.148,456.949,318.413"/>
				</g>
			</g>
			<g opacity="0.7">
				<g>
					<rect x="476.531" y="310.58" fill="none" width="18.798" height="260.044"/>
					<path fill="#BAB9A0" d="M480.448,317.63c10.966,82.243-3.916,164.485-3.916,246.729c0,7.049,11.749,7.049,11.749,0
						c0-83.81,14.882-166.836,3.133-249.861C490.63,307.448,479.664,310.58,480.448,317.63"/>
				</g>
			</g>
			<g opacity="0.7">
				<g>
					<rect x="496.113" y="309.014" fill="none" width="23.498" height="259.261"/>
					<path fill="#BAB9A0" d="M507.862,314.497c0.783,43.079-2.35,86.158-2.35,129.238c0,21.931-3.133,42.296-5.482,63.444
						c-1.567,18.015,0.783,36.813-3.134,54.045c-1.566,7.05,9.399,10.183,10.966,3.133c3.917-14.099,2.35-29.764,2.35-43.862
						c0.783-23.498,6.267-46.213,7.05-69.711c0.783-21.931,0-43.079,0-65.011c0-23.498,3.133-46.995,2.35-70.493
						C519.611,307.448,507.862,307.448,507.862,314.497"/>
				</g>
			</g>
			<g opacity="0.7">
				<g>
					<rect x="510.212" y="300.399" fill="none" width="39.163" height="260.043"/>
					<path fill="#BAB9A0" d="M538.409,305.881c0,43.863,0,85.376-10.183,128.455c-9.399,39.946-14.099,79.894-18.015,120.623
						c-0.784,7.049,10.965,7.049,11.748,0c3.917-42.297,9.399-83.026,18.799-123.756c9.399-41.513,9.399-82.242,9.399-125.322
						C550.157,298.049,538.409,298.049,538.409,305.881"/>
				</g>
			</g>
			<g opacity="0.7">
				<g>
					<rect x="532.143" y="294.915" fill="none" width="47.779" height="261.61"/>
					<path fill="#BAB9A0" d="M568.173,300.399c0,18.798-0.783,36.813-2.35,54.828c-2.35,21.932-10.183,43.079-14.882,65.011
						c-9.399,38.38-22.715,79.893-17.232,119.057c3.134,21.931,14.099,22.714,11.749,0c-4.699-39.947,8.616-83.026,18.016-122.189
						c4.699-18.799,10.965-36.813,13.315-55.612c2.35-20.364,3.133-40.729,3.133-61.094
						C579.922,293.349,568.173,293.349,568.173,300.399"/>
				</g>
			</g>
			<path fill="#BAB9A0" d="M593.238,301.965c0,79.893-30.547,155.086-43.08,233.412c-0.783,7.05,10.183,10.183,10.966,3.133
				c12.532-79.109,43.863-155.086,43.08-235.762C604.987,294.915,593.238,294.915,593.238,301.965"/>
			<path fill="#BAB9A0" d="M644.15,271.417c-0.783,43.863-30.547,83.81-39.163,126.889c-4.7,24.281-6.267,47.779-13.315,71.277
				c-6.267,23.498-14.882,46.996-21.148,71.277c-1.566,7.049,9.399,10.182,10.966,3.133c6.266-24.281,14.099-46.996,21.147-71.277
				c7.05-25.064,9.399-51.695,14.1-76.76c8.615-42.296,37.596-79.893,38.379-124.539C655.115,263.585,644.15,263.585,644.15,271.417
				"/>
			<path fill="#E2F1E6" d="M684.879,255.752l0.783-2.35l0,0C685.662,254.186,684.879,254.969,684.879,255.752"/>
			<path fill="#E2F1E6" d="M156.96,250.27L156.96,250.27v0.783V250.27"/>
		</g>
	</g>
	<g opacity="0.08">
		<rect x="225.887" y="272.984" fill="none" width="454.293" height="292.157"/>
		<path fill="#010101" d="M600.287,323.113L557.99,445.302c-8.615,42.296-73.626,82.243-189.55,80.676
			c-61.094-0.783-109.656-10.965-142.554-25.848c20.365,36.03,86.159,64.229,191.116,65.795
			c115.923,1.566,180.934-38.38,189.55-80.677l73.627-211.48C671.564,291.782,642.583,309.797,600.287,323.113"/>
	</g>
	<g opacity="0.7">
		<rect x="153.826" y="263.585" fill="none" width="529.486" height="92.425"/>
		<path fill="#F3F3F3" d="M426.403,344.261c-140.204-0.783-262.394-28.197-271.793-80.676c0,1.566-0.783,3.916-0.783,5.482
			c0,57.179,126.105,86.159,272.576,86.942c146.47,0.783,256.91-40.729,256.91-83.809c0-2.35,0.783-3.917,0-5.483
			C673.913,307.448,566.607,345.044,426.403,344.261"/>
	</g>
</g>
</svg>
