<?xml version="1.0" encoding="UTF-8" standalone="no"?>
<!-- Created with Inkscape (http://www.inkscape.org/) -->
<svg xmlns:dc="http://purl.org/dc/elements/1.1/" xmlns:cc="http://creativecommons.org/ns#" xmlns:rdf="http://www.w3.org/1999/02/22-rdf-syntax-ns#" xmlns:svg="http://www.w3.org/2000/svg" xmlns="http://www.w3.org/2000/svg" xmlns:sodipodi="http://sodipodi.sourceforge.net/DTD/sodipodi-0.dtd" xmlns:inkscape="http://www.inkscape.org/namespaces/inkscape" width="500" height="173.17" id="svg2" sodipodi:version="0.32" inkscape:version="0.46" version="1.0" sodipodi:docname="Logo Denner.svg" inkscape:output_extension="org.inkscape.output.svg.inkscape">
  <defs id="defs4">
    <inkscape:perspective sodipodi:type="inkscape:persp3d" inkscape:vp_x="0 : 526.18109 : 1" inkscape:vp_y="0 : 1000 : 0" inkscape:vp_z="744.09448 : 526.18109 : 1" inkscape:persp3d-origin="372.04724 : 350.78739 : 1" id="perspective10"/>
    <clipPath id="clipPath2416" clipPathUnits="userSpaceOnUse">
      <path id="path2418" d="M 0,0 L 595.28,0 L 595.28,841.89 L 0,841.89 L 0,0 z"/>
    </clipPath>
    <inkscape:perspective id="perspective2410" inkscape:persp3d-origin="372.04724 : 350.78739 : 1" inkscape:vp_z="744.09448 : 526.18109 : 1" inkscape:vp_y="0 : 1000 : 0" inkscape:vp_x="0 : 526.18109 : 1" sodipodi:type="inkscape:persp3d"/>
  </defs>
  <sodipodi:namedview id="base" pagecolor="#ffffff" bordercolor="#666666" borderopacity="1.0" inkscape:pageopacity="0.0" inkscape:pageshadow="2" inkscape:zoom="0.35" inkscape:cx="8.5714286" inkscape:cy="654.16303" inkscape:document-units="px" inkscape:current-layer="layer1" showgrid="false" inkscape:window-width="1280" inkscape:window-height="750" inkscape:window-x="-8" inkscape:window-y="-8"/>
  <metadata id="metadata7">
    <rdf:RDF>
      <cc:Work rdf:about="">
        <dc:format>image/svg+xml</dc:format>
        <dc:type rdf:resource="http://purl.org/dc/dcmitype/StillImage"/>
      </cc:Work>
    </rdf:RDF>
  </metadata>
  <g inkscape:label="Ebene 1" inkscape:groupmode="layer" id="layer1" transform="translate(-358.729, -625.672)">
    <g id="g2595" transform="matrix(2.18495, 0, 0, 2.18495, -415.077, -912.89)">
      <g transform="matrix(1.25, 0, 0, -1.25, 358.856, 705.341)" id="g2428">
        <path id="path2430" style="fill: rgb(255, 255, 255); fill-opacity: 1; fill-rule: nonzero; stroke: none;" d="M 174.766,-33.416 C 169.43,-51.7967 113.953,-61.5157 64.749,-57.4037 C 26.3877,-54.1977 0.71191,-43.0457 0.36328,-31.4707 C 0,-19.3857 27.2392,-6.6631 69.623,-3.8232 C 126.717,0 180.483,-13.6992 174.766,-33.416 z"/>
      </g>
      <g transform="matrix(1.25, 0, 0, -1.25, 358.688, 707.069)" id="g2434">
        <path id="path2436" style="fill: rgb(226, 0, 16); fill-opacity: 1; fill-rule: nonzero; stroke: none;" d="M 166.009,-30.2305 C 160.947,-46.0069 108.3,-54.3479 61.6016,-50.8189 C 28.1143,-48.2889 4.8164,-39.9879 1.03809,-30.9404 C 2.1582,-38.7279 15.1494,-46.2749 35.8594,-51.1339 C 40.0742,-52.1229 44.6074,-52.9979 49.4229,-53.7389 C 54.2383,-54.4809 59.3408,-55.0879 64.6924,-55.5399 C 64.6924,-55.5399 64.9219,-55.5589 64.9219,-55.5589 C 100.27,-58.5129 138.848,-54.3209 159.659,-44.9059 C 163.68,-43.0869 167.03,-41.0749 169.553,-38.8879 C 172.046,-36.7279 173.73,-34.3979 174.453,-31.9141 C 174.453,-31.9141 174.453,-31.9121 174.453,-31.9121 C 174.453,-31.9121 174.456,-31.9033 174.456,-31.9033 C 174.786,-30.7666 174.908,-29.6494 174.835,-28.5567 C 174.578,-24.7022 171.871,-21.1113 167.237,-17.8965 C 162.526,-14.6279 155.842,-11.7608 147.714,-9.4043 C 127.787,-3.626 99.2353,-0.9307 69.7891,-2.9024 C 45.46,-4.5322 26.1543,-9.418 14.2334,-15.5606 C 25.666,-10.6123 43.6914,-6.7559 66.2275,-5.3789 C 119.158,-2.1436 171.441,-13.3086 166.009,-30.2305 z M 1.30664,-25.1748 C 1.5625,-24.6729 1.8799,-24.1729 2.2529,-23.6758 C 3.2481,-22.292 4.5664,-20.9268 6.1934,-19.5977 C 16.459,-11.2061 39.1865,-4.0254 69.7275,-1.9785 C 99.2773,0 127.946,-2.71 147.971,-8.5166 C 156.193,-10.9004 162.969,-13.8106 167.762,-17.1358 C 172.633,-20.5156 175.481,-24.3379 175.758,-28.4951 C 175.839,-29.6924 175.704,-30.916 175.343,-32.1621 C 175.343,-32.1621 174.9,-32.0332 174.9,-32.0332 C 174.9,-32.0332 175.343,-32.1641 175.343,-32.1641 C 175.343,-32.1641 175.341,-32.1729 175.341,-32.1729 C 174.564,-34.8339 172.784,-37.3109 170.159,-39.5869 C 167.564,-41.8359 164.138,-43.8959 160.04,-45.7509 C 139.096,-55.2259 100.334,-59.4479 64.8467,-56.4829 C 64.8467,-56.4829 64.6162,-56.4639 64.6162,-56.4639 C 59.2471,-56.0099 54.124,-55.3999 49.2852,-54.6549 C 44.4443,-53.9099 39.8877,-53.0299 35.6494,-52.0359 C 13.7412,-46.8959 0.29395,-38.6359 0.03711,-30.1006 C 0.03711,-30.1006 0.03711,-30.0987 0.03711,-30.0987 C 0.03711,-30.0987 0.03516,-30.0293 0.03516,-30.0293 C 0.03516,-30.0293 0.03516,-30.0274 0.03516,-30.0274 C 0,-28.4072 0.4336,-26.7822 1.30664,-25.1748 z"/>
      </g>
      <g transform="matrix(1.25, 0, 0, -1.25, 377.025, 731.972)" id="g2440">
        <path id="path2442" style="fill: rgb(255, 255, 255); fill-opacity: 1; fill-rule: nonzero; stroke: none;" d="M 10.3672,-3.6465 C 10.3672,-3.6465 12.4287,-3.6465 12.4287,-3.6465 C 15.8145,-3.6465 17.5283,-5.0264 16.8252,-8.0273 C 16.1211,-11.0303 13.7608,-12.4082 10.375,-12.4082 C 10.375,-12.4082 8.3145,-12.4082 8.3145,-12.4082 C 8.3145,-12.4082 10.3672,-3.6465 10.3672,-3.6465 z M 0,-16.053 C 0,-16.053 10.7735,-16.053 10.7735,-16.053 C 16.2422,-16.053 18.3516,-15.433 20.7901,-13.921 C 22.5996,-12.8057 23.9942,-10.5176 24.5459,-8.1611 C 25.1104,-5.7578 24.6787,-3.8242 23.6817,-2.6475 C 21.7705,-0.4219 18.4854,0 13.2608,0 C 13.2608,0 3.7657,0 3.7657,0 C 3.7657,0 0,-16.053 0,-16.053 z"/>
      </g>
      <g transform="matrix(1.25, 0, 0, -1.25, 404.313, 732.415)" id="g2446">
        <path id="path2448" style="fill: rgb(255, 255, 255); fill-opacity: 1; fill-rule: nonzero; stroke: none;" d="M 0,-16.0535 C 0,-16.0535 0.0107,-15.9945 0.0107,-15.9945 C 1.9814,-14.6615 4.4932,-11.9023 5.1631,-8.3574 C 5.8828,-4.5762 4.7891,-1.5683 3.1631,-0.0205 C 3.1631,-0.0205 3.166,0 3.166,0 C 3.166,0 23.1543,0 23.1543,0 C 23.1543,0 22.3604,-3.3818 22.3604,-3.3818 C 22.3604,-3.3818 12.5947,-3.3818 12.5947,-3.3818 C 12.5947,-3.3818 11.9014,-6.3379 11.9014,-6.3379 C 11.9014,-6.3379 21.0537,-6.3379 21.0537,-6.3379 C 21.0537,-6.3379 20.2588,-9.7168 20.2588,-9.7168 C 20.2588,-9.7168 11.1094,-9.7168 11.1094,-9.7168 C 11.1094,-9.7168 10.415,-12.6775 10.415,-12.6775 C 10.415,-12.6775 20.2773,-12.6775 20.2773,-12.6775 C 20.2773,-12.6775 19.4844,-16.0535 19.4844,-16.0535 C 19.4844,-16.0535 0,-16.0535 0,-16.0535 z"/>
      </g>
      <g transform="matrix(1.25, 0, 0, -1.25, 431.633, 732.415)" id="g2452">
        <path id="path2454" style="fill: rgb(255, 255, 255); fill-opacity: 1; fill-rule: nonzero; stroke: none;" d="M 0,-16.0535 C 0,-16.0535 6.4786,-16.0535 6.4786,-16.0535 C 6.4786,-16.0535 9.1602,-4.625 9.1602,-4.625 C 9.1602,-4.625 9.209,-4.625 9.209,-4.625 C 9.209,-4.625 12.8575,-16.0535 12.8575,-16.0535 C 12.8575,-16.0535 23.4346,-16.0535 23.4346,-16.0535 C 23.4346,-16.0535 27.2022,0 27.2022,0 C 27.2022,0 20.7217,0 20.7217,0 C 20.7217,0 18.1954,-10.7637 18.1954,-10.7637 C 18.1954,-10.7637 18.1221,-10.7637 18.1221,-10.7637 C 18.1221,-10.7637 14.6846,0 14.6846,0 C 14.6846,0 3.7676,0 3.7676,0 C 3.7676,0 0,-16.0535 0,-16.0535 z"/>
      </g>
      <g transform="matrix(1.25, 0, 0, -1.25, 464.233, 732.415)" id="g2458">
        <path id="path2460" style="fill: rgb(255, 255, 255); fill-opacity: 1; fill-rule: nonzero; stroke: none;" d="M 0,-16.0535 C 0,-16.0535 6.4737,-16.0535 6.4737,-16.0535 C 6.4737,-16.0535 9.1598,-4.625 9.1598,-4.625 C 9.1598,-4.625 9.2068,-4.625 9.2068,-4.625 C 9.2068,-4.625 12.8538,-16.0535 12.8538,-16.0535 C 12.8538,-16.0535 23.4338,-16.0535 23.4338,-16.0535 C 23.4338,-16.0535 27.1968,0 27.1968,0 C 27.1968,0 20.7218,0 20.7218,0 C 20.7218,0 18.1948,-10.7637 18.1948,-10.7637 C 18.1948,-10.7637 18.1218,-10.7637 18.1218,-10.7637 C 18.1218,-10.7637 14.6898,0 14.6898,0 C 14.6898,0 3.7696,0 3.7696,0 C 3.7696,0 0,-16.0535 0,-16.0535 z"/>
      </g>
      <g transform="matrix(1.25, 0, 0, -1.25, 496.968, 732.415)" id="g2464">
        <path id="path2466" style="fill: rgb(255, 255, 255); fill-opacity: 1; fill-rule: nonzero; stroke: none;" d="M 0,-16.0535 C 0,-16.0535 17.078,-16.0535 17.078,-16.0535 C 17.078,-16.0535 17.869,-12.6775 17.869,-12.6775 C 17.869,-12.6775 8,-12.6775 8,-12.6775 C 8,-12.6775 8.699,-9.7168 8.699,-9.7168 C 8.699,-9.7168 17.848,-9.7168 17.848,-9.7168 C 17.848,-9.7168 18.644,-6.3379 18.644,-6.3379 C 18.644,-6.3379 9.493,-6.3379 9.493,-6.3379 C 9.493,-6.3379 10.181,-3.3818 10.181,-3.3818 C 10.181,-3.3818 19.948,-3.3818 19.948,-3.3818 C 19.948,-3.3818 20.745,0 20.745,0 C 20.745,0 3.763,0 3.763,0 C 3.763,0 0,-16.0535 0,-16.0535 z"/>
      </g>
      <g transform="matrix(1.25, 0, 0, -1.25, 521.552, 732.415)" id="g2470">
        <path id="path2472" style="fill: rgb(255, 255, 255); fill-opacity: 1; fill-rule: nonzero; stroke: none;" d="M 0,-16.0535 C 0,-16.0535 7.462,-16.0535 7.462,-16.0535 C 7.462,-16.0535 8.833,-10.2285 8.833,-10.2285 C 8.833,-10.2285 11.089,-10.2285 11.089,-10.2285 C 13.642,-10.2285 13.899,-10.4951 13.78,-12.4756 C 13.78,-12.4756 13.551,-16.0535 13.551,-16.0535 C 13.551,-16.0535 21.012,-16.0535 21.012,-16.0535 C 21.012,-16.0535 21.313,-10.6728 21.313,-10.6728 C 21.4,-9.0537 20.109,-8.4971 18.403,-8.4521 C 18.403,-8.4521 18.459,-8.2285 18.459,-8.2285 C 20.749,-7.874 22.677,-6.5381 23.176,-4.4248 C 24.005,-0.8691 21.217,0 16.382,0 C 16.382,0 3.774,0 3.774,0 C 3.774,0 0,-16.0535 0,-16.0535 z M 10.468,-3.248 C 10.468,-3.248 13.194,-3.248 13.194,-3.248 C 15.009,-3.248 16.024,-3.7373 15.692,-5.1592 C 15.337,-6.6719 14.002,-7.1181 12.407,-7.1181 C 12.407,-7.1181 9.56,-7.1181 9.56,-7.1181 C 9.56,-7.1181 10.468,-3.248 10.468,-3.248 z"/>
      </g>
    </g>
  </g>
</svg>