<?xml version="1.0" standalone="no"?>
<!DOCTYPE svg PUBLIC "-//W3C//DTD SVG 20010904//EN"
 "http://www.w3.org/TR/2001/REC-SVG-20010904/DTD/svg10.dtd">
<svg version="1.0" xmlns="http://www.w3.org/2000/svg"
 width="200.000000pt" height="97.000000pt" viewBox="0 0 200.000000 97.000000"
 preserveAspectRatio="xMidYMid meet">

<g transform="translate(0.000000,97.000000) scale(0.100000,-0.100000)"
fill="#000000" stroke="none">
<path d="M0 485 l0 -485 1000 0 1000 0 0 485 0 485 -1000 0 -1000 0 0 -485z
m990 376 c0 -27 -5 -41 -16 -45 -9 -4 -184 -6 -388 -6 l-371 1 -3 -30 -3 -31
388 -2 388 -3 0 -40 0 -40 -387 -3 -388 -2 0 -35 0 -35 388 -2 387 -3 0 -40 0
-40 -465 0 -465 0 -3 190 c-1 104 -1 194 1 200 3 7 157 9 471 7 l466 -2 0 -39z
m65 19 c-10 -11 -20 -18 -23 -15 -3 3 3 14 13 25 10 11 20 18 23 15 3 -3 -3
-14 -13 -25z m20 -20 c-27 -27 -51 -47 -54 -45 -6 7 80 95 93 95 6 0 -12 -22
-39 -50z m20 -20 c-38 -38 -71 -67 -74 -64 -6 6 120 134 133 134 6 0 -21 -31
-59 -70z m105 65 c0 -9 -174 -174 -179 -169 -3 2 33 43 79 89 76 76 100 96
100 80z m40 -3 c0 -14 -209 -216 -217 -209 -7 8 195 217 209 217 5 0 8 -3 8
-8z m40 2 c0 -13 -250 -257 -257 -250 -7 7 235 256 249 256 5 0 8 -3 8 -6z
m43 -46 c-26 -26 -52 -48 -57 -48 -6 0 7 17 27 38 55 56 45 62 -14 7 -62 -58
-77 -52 -18 8 35 34 51 44 77 43 l32 0 -47 -48z m42 2 c-27 -27 -54 -50 -59
-50 -6 0 12 23 39 50 27 28 54 50 59 50 6 0 -12 -22 -39 -50z m40 0 c-27 -27
-51 -47 -54 -45 -6 7 80 95 93 95 6 0 -12 -22 -39 -50z m59 18 c-39 -43 -68
-67 -73 -62 -6 6 81 94 93 94 5 0 -3 -14 -20 -32z m66 26 c0 -11 -92 -95 -98
-90 -3 4 14 27 38 51 40 41 60 54 60 39z m40 -3 c0 -13 -91 -94 -98 -87 -3 4
14 27 38 51 43 44 60 54 60 36z m40 0 c0 -13 -91 -94 -98 -87 -3 4 14 27 38
51 43 44 60 54 60 36z m3 -43 c-29 -29 -55 -50 -58 -46 -8 8 78 98 95 98 8 0
-8 -23 -37 -52z m40 0 c-29 -29 -55 -49 -58 -46 -7 7 86 98 100 98 5 0 -14
-23 -42 -52z m42 2 c-27 -27 -54 -50 -59 -50 -6 0 12 23 39 50 27 28 54 50 59
50 6 0 -12 -22 -39 -50z m40 0 c-27 -27 -51 -47 -54 -45 -6 7 80 95 93 95 6 0
-12 -22 -39 -50z m59 18 c-45 -50 -67 -69 -72 -63 -7 7 79 95 92 95 5 0 -3
-14 -20 -32z m66 23 c0 -12 -92 -93 -98 -86 -6 6 78 95 90 95 4 0 8 -4 8 -9z
m-9 -54 c-57 -53 -66 -38 -10 19 25 25 45 40 48 33 2 -7 -15 -30 -38 -52z m36
-3 c-21 -20 -41 -33 -44 -30 -9 8 50 66 67 66 9 0 0 -14 -23 -36z m39 1 c-3
-8 -1 -15 5 -15 6 0 7 -5 3 -12 -6 -9 -9 -9 -12 0 -2 8 -9 9 -23 2 -24 -13
-25 -2 -1 21 21 22 36 24 28 4z m-640 -94 c26 22 26 1 -1 -25 -31 -31 -56 -35
-29 -4 19 21 19 21 0 14 -16 -6 -17 -4 -5 10 9 11 15 12 17 5 3 -9 8 -9 18 0z
m64 3 c0 -11 -81 -86 -87 -80 -4 4 11 24 32 46 36 37 55 49 55 34z m40 -2 c0
-14 -89 -96 -97 -89 -4 4 13 28 37 52 42 43 60 54 60 37z m40 0 c0 -15 -89
-96 -97 -88 -4 4 13 27 37 51 45 43 60 52 60 37z m40 0 c0 -13 -89 -96 -96
-89 -4 3 13 26 37 50 44 44 59 54 59 39z m3 -44 c-29 -29 -55 -50 -58 -46 -8
8 77 95 95 97 8 0 -9 -22 -37 -51z m42 2 c-27 -27 -51 -47 -54 -45 -6 7 80 95
93 95 6 0 -12 -22 -39 -50z m85 46 c0 -9 -95 -94 -99 -90 -6 5 80 94 91 94 4
0 8 -2 8 -4z m40 -1 c0 -9 -94 -94 -99 -89 -6 5 80 94 91 94 4 0 8 -2 8 -5z
m40 -2 c0 -11 -93 -93 -99 -88 -2 3 15 26 39 50 42 43 60 54 60 38z m40 -1 c0
-14 -89 -96 -97 -89 -4 4 13 28 37 52 42 43 60 54 60 37z m40 0 c0 -13 -89
-96 -96 -89 -4 4 13 27 37 51 43 44 59 54 59 38z m40 0 c0 -14 -89 -96 -97
-89 -4 4 13 27 38 51 44 43 59 53 59 38z m3 -44 c-29 -29 -55 -49 -58 -46 -7
7 85 97 100 98 5 0 -14 -23 -42 -52z m42 2 c-27 -27 -54 -50 -59 -50 -6 0 12
23 39 50 27 28 54 50 59 50 6 0 -12 -22 -39 -50z m30 -10 c-32 -33 -61 -57
-64 -54 -6 6 100 114 113 114 6 0 -16 -27 -49 -60z m85 46 c0 -10 -224 -226
-234 -226 -5 0 41 52 104 115 102 102 130 126 130 111z m-820 -24 c0 -13 -109
-116 -116 -109 -4 3 17 31 46 62 50 52 70 65 70 47z m820 -18 c0 -14 -175
-184 -189 -184 -9 0 27 43 79 95 87 87 110 106 110 89z m-820 -22 c0 -4 -23
-30 -51 -57 -60 -58 -62 -47 -4 19 38 44 55 56 55 38z m820 -19 c0 -14 -135
-143 -149 -143 -9 0 18 34 59 75 70 70 90 85 90 68z m-850 -58 c-24 -25 -49
-45 -54 -45 -6 0 10 20 34 45 24 25 49 45 54 45 6 0 -10 -20 -34 -45z m21 -28
c-22 -23 -44 -38 -48 -34 -9 10 68 88 80 80 5 -3 -9 -24 -32 -46z m829 46 c0
-14 -94 -103 -109 -103 -9 0 8 23 39 55 51 52 70 65 70 48z m-760 -19 c0 -3
-13 -19 -30 -34 -16 -15 -30 -32 -30 -36 0 -4 18 9 40 31 22 21 43 35 47 32 4
-4 -9 -24 -28 -43 -30 -29 -40 -34 -63 -28 l-28 7 38 38 c35 36 54 48 54 33z
m70 -11 c0 -14 -64 -73 -79 -73 -9 0 0 15 24 40 37 38 55 49 55 33z m15 -33
c-21 -22 -46 -40 -55 -40 -9 0 0 14 25 39 53 52 80 52 30 1z m40 0 c-21 -22
-43 -40 -48 -40 -15 0 57 78 73 79 8 1 -3 -17 -25 -39z m40 0 c-21 -22 -44
-40 -49 -40 -6 0 8 18 29 40 21 22 44 40 49 40 6 0 -8 -18 -29 -40z m40 0
c-21 -22 -44 -40 -49 -40 -6 0 8 18 29 40 21 22 44 40 49 40 6 0 -8 -18 -29
-40z m75 35 c0 -9 -74 -75 -84 -75 -6 0 8 18 29 40 35 36 55 49 55 35z m40 -5
c0 -5 -4 -10 -9 -10 -5 0 -17 -12 -26 -27 -14 -23 -9 -20 24 11 49 48 69 40
22 -8 -25 -26 -41 -34 -67 -33 l-34 1 37 38 c37 38 53 47 53 28z m80 3 c0 -14
-64 -73 -79 -73 -9 0 0 15 24 40 37 38 55 49 55 33z m13 -35 c-23 -23 -45 -39
-49 -35 -8 8 62 77 79 77 6 0 -7 -19 -30 -42z m40 0 c-23 -23 -45 -39 -48 -36
-8 7 65 77 80 78 5 0 -9 -19 -32 -42z m42 2 c-21 -22 -44 -40 -49 -40 -6 0 8
18 29 40 21 22 44 40 49 40 6 0 -8 -18 -29 -40z m40 0 c-21 -22 -44 -40 -49
-40 -6 0 8 18 29 40 21 22 44 40 49 40 6 0 -8 -18 -29 -40z m209 -2 c-19 -21
-19 -21 0 -14 16 6 17 4 5 -10 -9 -11 -15 -12 -17 -5 -3 9 -8 9 -18 0 -31 -26
-24 1 8 29 37 34 52 34 22 0z m-9 -101 c18 -15 28 -36 32 -64 5 -39 3 -45 -32
-80 l-37 -37 31 -25 c39 -33 49 -77 26 -120 -30 -60 -39 -61 -515 -61 l-430 0
0 205 0 205 449 0 450 0 26 -23z m-1617 -109 c42 -21 22 -28 -85 -28 l-108 0
25 20 c39 30 115 34 168 8z m295 -3 c40 -17 11 -25 -90 -25 -100 0 -106 1 -91
16 30 30 120 34 181 9z m238 15 c9 0 27 -9 40 -20 l24 -19 -107 -1 c-60 0
-108 4 -108 9 0 16 82 42 115 35 11 -2 27 -4 36 -4z m-666 -95 c0 -13 -8 -21
-22 -23 -13 -2 -23 -7 -23 -12 0 -15 90 -21 178 -11 19 2 14 18 -8 24 -12 3
-20 14 -20 26 0 20 5 21 84 21 91 0 114 -11 77 -39 -12 -9 -19 -20 -15 -24 11
-11 184 -8 184 2 0 5 -9 13 -21 16 -12 4 -19 14 -17 23 3 14 17 17 93 17 78 0
90 -2 93 -18 3 -12 -5 -19 -27 -23 -56 -11 -21 -24 65 -24 86 0 100 7 62 32
-34 23 -13 38 53 38 57 0 60 -1 57 -22 -2 -18 -11 -24 -34 -26 -20 -2 -34 -10
-37 -21 -5 -20 -64 -51 -100 -51 -40 0 -85 20 -102 46 -16 24 -65 35 -65 14 0
-6 -11 -22 -25 -35 -19 -20 -34 -25 -76 -25 -54 0 -111 26 -123 55 -10 26 -48
16 -82 -20 -30 -33 -35 -35 -95 -35 -67 1 -88 10 -108 48 -9 16 -21 22 -46 22
-31 0 -35 3 -35 25 0 26 1 26 68 23 59 -3 67 -5 67 -23z"/>
<path d="M1160 355 l0 -35 314 0 c274 0 315 2 327 16 9 11 10 20 2 32 -9 15
-44 17 -327 20 l-316 2 0 -35z"/>
<path d="M1160 205 l0 -35 309 0 c170 0 316 3 325 6 19 7 21 35 4 52 -9 9 -95
12 -325 12 l-313 0 0 -35z"/>
</g>
</svg>
