<?xml version="1.0" encoding="UTF-8" standalone="no"?>
<!-- Created with Inkscape (http://www.inkscape.org/) -->
<svg
   xmlns:svg="http://www.w3.org/2000/svg"
   xmlns="http://www.w3.org/2000/svg"
   version="1.0"
   width="740"
   height="170"
   id="svg2443"
   xml:space="preserve"><defs
     id="defs2446"><clipPath
       id="clipPath3778"><path
         d="M 79.236,541.413 L 173.043,541.413 L 173.043,561.825 L 79.236,561.825 L 79.236,541.413 z"
         id="path3780" /></clipPath></defs><g
     transform="matrix(7.5064809,0,0,-7.5064809,-578.79853,4227.3406)"
     id="g4406"><g
       transform="translate(169.9122,559.3746)"
       id="g3770"><path
         d="M 0,0 L 0.707,1.226 L 0,2.452 L -1.416,2.452 L -2.123,1.226 L -1.416,0 L 0,0 z M -2.427,-1.401 L -1.72,-0.175 L -2.427,1.05 L -3.843,1.05 L -4.55,-0.175 L -3.843,-1.401 L -2.427,-1.401 z M 1.01,-1.401 L 2.426,-1.401 L 3.134,-0.175 L 2.426,1.05 L 1.01,1.05 L 0.303,-0.175 L 1.01,-1.401 z M -2.427,-1.753 L -3.843,-1.753 L -4.55,-2.977 L -3.843,-4.203 L -2.427,-4.203 L -1.72,-2.977 L -2.427,-1.753 z M 1.01,-1.753 L 0.303,-2.977 L 1.01,-4.203 L 2.426,-4.203 L 3.134,-2.977 L 2.426,-1.753 L 1.01,-1.753 z M -1.416,-3.154 L -2.123,-4.379 L -1.416,-5.605 L 0,-5.605 L 0.707,-4.379 L 0,-3.154 L -1.416,-3.154 z"
         id="path3772"
         style="fill:#ed1c24;fill-opacity:1;fill-rule:nonzero;stroke:none" /></g><g
       id="g3774"><g
         clip-path="url(#clipPath3778)"
         id="g3776"><g
           transform="translate(140.7228,543.4477)"
           id="g3782"><path
             d="M 0,0 C -3.432,0 -5.151,2.811 -5.151,6.224 C -5.151,9.659 -3.472,12.448 0,12.448 C 3.474,12.448 5.151,9.659 5.151,6.224 C 5.151,2.811 3.433,0 0,0 M 0,14.085 C -4.316,14.085 -6.808,10.542 -6.808,6.205 C -6.808,1.845 -4.316,-1.638 0,-1.638 C 4.317,-1.638 6.809,1.845 6.809,6.205 C 6.809,10.542 4.317,14.085 0,14.085"
             id="path3784"
             style="fill:#231f20;fill-opacity:1;fill-rule:nonzero;stroke:none" /></g><g
           transform="translate(128.3275,545.5146)"
           id="g3786"><path
             d="M 0,0 L -11.806,12.372 L -11.806,-3.415 L -10.121,-3.415 L -10.121,8.255 L 1.685,-4.097 L 1.685,11.729 L 0,11.729 L 0,0 z"
             id="path3788"
             style="fill:#231f20;fill-opacity:1;fill-rule:nonzero;stroke:none" /></g><g
           transform="translate(161.1688,542.0997)"
           id="g3790"><path
             d="M 0,0 L 2.108,0 L -2.564,6.218 C -0.175,6.652 1.564,8.131 1.564,10.653 L 1.564,10.695 C 1.564,11.892 1.131,12.957 0.392,13.695 C -0.565,14.652 -2.064,15.218 -3.934,15.218 L -9.969,15.218 L -9.969,0 L -8.251,0 L -8.251,13.63 L -4.064,13.63 C -1.608,13.63 -0.175,12.5 -0.175,10.631 L -0.175,10.588 C -0.175,8.665 -1.749,7.5 -3.969,7.461 L -3.969,7.457 L -5.513,7.394 L 0,0 z"
             id="path3792"
             style="fill:#231f20;fill-opacity:1;fill-rule:nonzero;stroke:none" /></g><g
           transform="translate(103.1111,546.523)"
           id="g3794"><path
             d="M 0,0 L 3.194,7.508 L 6.341,0 L 0,0 z M -3.752,-4.423 L -1.907,-4.423 L -0.697,-1.539 L 6.992,-1.554 L 8.173,-4.423 L 10.039,-4.423 L 3.233,11.444 L -3.752,-4.423 z"
             id="path3796"
             style="fill:#231f20;fill-opacity:1;fill-rule:nonzero;stroke:none" /></g><g
           transform="translate(87.918,544.3184)"
           id="g3798"><path
             d="M 0,0 L 4.794,8.884 L 6.934,-2.219 L 8.68,-2.219 L 5.572,13.739 L 0,3.441 L -5.574,13.739 L -8.68,-2.219 L -6.935,-2.219 L -4.795,8.884 L 0,0 z"
             id="path3800"
             style="fill:#231f20;fill-opacity:1;fill-rule:nonzero;stroke:none" /></g></g></g></g></svg>