<?xml version="1.0" encoding="utf-8"?>
<!-- Svg Vector Icons : http://www.onlinewebfonts.com/icon -->
<!DOCTYPE svg PUBLIC "-//W3C//DTD SVG 1.1//EN" "http://www.w3.org/Graphics/SVG/1.1/DTD/svg11.dtd">
<svg version="1.1" xmlns="http://www.w3.org/2000/svg" xmlns:xlink="http://www.w3.org/1999/xlink" x="0px" y="0px" viewBox="0 0 1000 1000" enable-background="new 0 0 1000 1000" xml:space="preserve">
<metadata> Svg Vector Icons : http://www.onlinewebfonts.com/icon </metadata>
<g><path d="M499.9,826.7c5.5,0,307.6-260.6,307.6-514.5C807.5,145.3,669.8,10,499.9,10C330,10,192.3,145.3,192.3,312.2C192.3,566.1,499,826.7,499.9,826.7z M499.9,52.6c146.1,0,265,116.4,265,259.6c0,188.6-190.3,391.4-263.7,458.2c-70.6-66.6-266.3-268.7-266.3-458.2C234.9,169,353.8,52.6,499.9,52.6z"/><path d="M563.8,329.6c0-35.3-28.6-63.9-63.9-63.9c-35.3,0-63.9,28.6-63.9,63.9c0,35.3,28.6,63.9,63.9,63.9C535.2,393.5,563.8,364.9,563.8,329.6z"/><path d="M755.4,758v44.5c70.4,20.1,106.8,44.6,106.8,56.8c0,22.6-124.5,88.1-362.2,88.1c-237.6,0-362.2-65.4-362.2-88.1c0-12.2,36.4-36.7,106.7-56.8V758c-91.1,24-149.4,60.4-149.4,101.3C95.2,931.5,276.5,990,500,990c223.5,0,404.8-58.5,404.8-130.7C904.8,818.4,846.5,782,755.4,758z"/></g>
</svg>