<svg id="Ebene_1" xmlns="http://www.w3.org/2000/svg" width="283.46" height="283.46" viewBox="0 0 283.46 283.46"><style><![CDATA[
	.st0{fill-rule:evenodd;clip-rule:evenodd;}
]]></style><path class="st0" d="M199.316 115.997c-1.63 3.563-3.31 7.104-4.877 10.694-6.904 15.816-13.76 31.652-20.662 47.466-7.498 17.18-15.057 34.332-22.498 51.535-.656 1.52-1.36 2.202-3.023 2.19-7.698-.048-15.398-.053-23.097.034-1.715.02-2.396-.734-3.022-2.203-7.818-18.34-15.693-36.655-23.574-54.968-7.567-17.584-15.157-35.157-22.748-52.73-.286-.663-.682-1.277-1.685-1.775-.062.94-.18 1.88-.18 2.82.002 35.294-.002 70.59.074 105.886.005 2.188-.538 2.995-2.82 2.983-15-.08-29.997-.09-44.995-.008-2.494.013-3.227-.837-3.225-3.303.056-63.192.06-126.384-.016-189.576-.004-2.8 1.08-3.314 3.534-3.308 20.897.054 41.794.036 62.69-.037 1.855-.006 2.623.807 3.276 2.36 4.946 11.763 9.966 23.495 14.95 35.242 7.008 16.52 14.003 33.045 21.01 49.565 3.223 7.603 6.46 15.2 9.995 23.52.856-1.41 1.48-2.223 1.882-3.132 15.273-34.47 30.57-68.928 45.71-103.456 1.378-3.138 3.042-4.154 6.44-4.12 18.297.183 36.596.146 54.893.03 2.793-.02 3.563.832 3.56 3.562-.055 62.592-.027 125.185-.025 187.776 0 4.848-.03 4.844-4.924 4.843-13.996-.002-27.995-.07-41.99.06-2.84.026-3.71-.75-3.702-3.672.094-34.896.053-69.792.047-104.688v-3.247c-.333-.11-.666-.226-1-.34z"/></svg>