<?xml version="1.0" encoding="utf-8"?>
<!-- Generator: Adobe Illustrator 16.0.3, SVG Export Plug-In . SVG Version: 6.00 Build 0)  -->
<!DOCTYPE svg PUBLIC "-//W3C//DTD SVG 1.1//EN" "http://www.w3.org/Graphics/SVG/1.1/DTD/svg11.dtd">
<svg version="1.1" id="Ebene_1" xmlns="http://www.w3.org/2000/svg" xmlns:xlink="http://www.w3.org/1999/xlink" x="0px" y="0px"
	 width="283.46px" height="283.46px" viewBox="0 0 283.46 283.46" style="enable-background:new 0 0 283.46 283.46;"
	 xml:space="preserve">
<path d="M6.125,280.824V6.5h241.169c-35.045,9.666-71.438,19-107.384,29.814C103.572,47.242,68.578,61.538,37.897,84.9
	C114.31,46.35,197.16,31.207,280.893,15.838v260.57c-23.753-4.156-47.238-6.986-70.056-12.56
	c-34.639-8.457-69.29-17.41-103.058-28.761c-35.214-11.838-67.732-29.424-93.122-57.853L12.678,179
	c7.32,8.391,13.918,17.57,22.094,25.021c26.9,24.506,59.51,39.271,93.21,51.44c25.939,9.369,52.479,17.074,78.273,25.363H6.125
	L6.125,280.824z M75.917,189.024c33.165-1.012,64.6-0.521,95.727-3.38c25.027-2.301,43.127-16.38,50.406-41.887
	c7.453-26.119-2.301-45.327-29.086-48.495c-29.774-3.52-60.074-2.674-90.153-3.355c-1.78-0.04-4.785,2.96-5.28,5.015
	C90.331,126.709,83.467,156.578,75.917,189.024L75.917,189.024z"/>
<path d="M126.142,166.49c4.12-17.514,7.71-33.09,11.554-48.602c0.346-1.396,2.42-3.493,3.525-3.394
	c9.144,0.815,18.725,0.74,27.149,3.77c4.049,1.458,7.811,8.832,8.363,13.89c1.563,14.313-8.33,27.792-22.527,31.184
	c-8.549,2.043-17.585,2.056-28.063,3.154L126.142,166.49z"/>
</svg>
