<?xml version="1.0" encoding="utf-8"?>
<!-- Generator: Adobe Illustrator 16.0.3, SVG Export Plug-In . SVG Version: 6.00 Build 0)  -->
<!DOCTYPE svg PUBLIC "-//W3C//DTD SVG 1.1//EN" "http://www.w3.org/Graphics/SVG/1.1/DTD/svg11.dtd">
<svg version="1.1" id="Capa_1" xmlns="http://www.w3.org/2000/svg" xmlns:xlink="http://www.w3.org/1999/xlink" x="0px" y="0px"
	 width="802.46px" height="517.475px" viewBox="128.097 48.596 802.46 517.475"
	 enable-background="new 128.097 48.596 802.46 517.475" xml:space="preserve">
<g>
	<path fill="none" d="M353.294,111.892c-87.854,0-159.085,71.218-159.085,159.089c0,24.607,5.592,47.944,15.583,68.732
		c0.558,1.18,143.502,281.262,143.502,281.262l141.782-277.781c11.063-21.659,17.308-46.207,17.308-72.213
		C512.384,183.11,441.165,111.892,353.294,111.892z M353.294,366.433c-52.712,0-95.449-42.755-95.449-95.452
		c0-52.698,42.737-95.453,95.449-95.453c52.7,0,95.455,42.754,95.455,95.453C448.749,323.678,405.994,366.433,353.294,366.433z"/>
</g>
<text transform="matrix(1 0 0 1 544.9053 344.2207)" font-family="'Ancillary-Regular'" font-size="192.8714">Map</text>
<ellipse cx="358.571" cy="271.693" rx="126.586" ry="135.692"/>
<path d="M521.061,265.596c-2.85-90.228-73.166-163.455-163.428-163.489c-90.264,0.034-160.58,73.261-163.429,163.489
	c-4.157,131.645,100.704,171.257,146.793,255.729c7.179,13.157,26.09,13.157,33.271,0
	C420.357,436.853,525.218,397.24,521.061,265.596 M357.633,389.543c-67.72,0-122.616-54.898-122.616-122.616
	c0-67.718,54.896-122.616,122.616-122.616s122.615,54.898,122.615,122.616C480.248,334.645,425.353,389.543,357.633,389.543"/>
<path fill="#FFFFFF" d="M386.705,197.964v146.257h-22.426v-90.095l-45.242,73.714l-45.242-73.714v90.095h-22.426V197.964h14.626
	l53.042,87.559l53.042-87.559H386.705z"/>
<path fill="#FFFFFF" d="M385.705,197.964h29.48c50.508,0,64.157,35.881,64.157,73.128c0,45.438-24.375,73.128-62.792,73.128
	l-30.846-0.095V197.964z M385.739,321.794h30.812c25.546,0,40.367-21.646,40.367-50.702c0-24.961-7.996-50.702-41.343-50.702
	h-29.836V321.794z"/>
</svg>
